<?xml version="1.0" encoding="UTF-8" standalone="no"?>
<!-- Generator: Adobe Illustrator 19.0.0, SVG Export Plug-In . SVG Version: 6.00 Build 0)  -->

<svg
   version="1.1"
   id="Capa_1"
   x="0px"
   y="0px"
   viewBox="0 0 489.713 489.713"
   style="enable-background:new 0 0 489.713 489.713;"
   xml:space="preserve"
   sodipodi:docname="search-icon.svg"
   inkscape:version="1.2.1 (9c6d41e410, 2022-07-14)"
   xmlns:inkscape="http://www.inkscape.org/namespaces/inkscape"
   xmlns:sodipodi="http://sodipodi.sourceforge.net/DTD/sodipodi-0.dtd"
   xmlns="http://www.w3.org/2000/svg"
   xmlns:svg="http://www.w3.org/2000/svg"><defs
   id="defs39" /><sodipodi:namedview
   id="namedview37"
   pagecolor="#ffffff"
   bordercolor="#666666"
   borderopacity="1.0"
   inkscape:showpageshadow="2"
   inkscape:pageopacity="0.0"
   inkscape:pagecheckerboard="0"
   inkscape:deskcolor="#d1d1d1"
   showgrid="false"
   inkscape:zoom="0.48191491"
   inkscape:cx="-26.975717"
   inkscape:cy="245.89403"
   inkscape:window-width="1920"
   inkscape:window-height="1002"
   inkscape:window-x="1920"
   inkscape:window-y="39"
   inkscape:window-maximized="1"
   inkscape:current-layer="Capa_1" />
<g
   id="g4"
   style="fill:#596488;fill-opacity:1">
	<path
   d="M483.4,454.444l-121.3-121.4c28.7-35.2,46-80,46-128.9c0-112.5-91.5-204.1-204.1-204.1S0,91.644,0,204.144   s91.5,204,204.1,204c48.8,0,93.7-17.3,128.9-46l121.3,121.3c8.3,8.3,20.9,8.3,29.2,0S491.8,462.744,483.4,454.444z M40.7,204.144   c0-90.1,73.2-163.3,163.3-163.3s163.4,73.3,163.4,163.4s-73.3,163.4-163.4,163.4S40.7,294.244,40.7,204.144z"
   id="path2"
   style="fill:#596488;fill-opacity:1" />
</g>















</svg>
