<?xml version="1.0" encoding="UTF-8" standalone="no"?>
<!-- Created with Inkscape (http://www.inkscape.org/) -->

<svg
   version="1.1"
   id="svg532"
   width="512"
   height="512"
   viewBox="0 0 512 512"
   sodipodi:docname="contraction-timer-bell.svg"
   inkscape:version="1.2.1 (9c6d41e410, 2022-07-14)"
   xmlns:inkscape="http://www.inkscape.org/namespaces/inkscape"
   xmlns:sodipodi="http://sodipodi.sourceforge.net/DTD/sodipodi-0.dtd"
   xmlns="http://www.w3.org/2000/svg"
   xmlns:svg="http://www.w3.org/2000/svg">
  <defs
     id="defs536" />
  <sodipodi:namedview
     id="namedview534"
     pagecolor="#ffffff"
     bordercolor="#666666"
     borderopacity="1.0"
     inkscape:showpageshadow="2"
     inkscape:pageopacity="0.0"
     inkscape:pagecheckerboard="0"
     inkscape:deskcolor="#d1d1d1"
     showgrid="false"
     inkscape:zoom="0.4609375"
     inkscape:cx="53.152542"
     inkscape:cy="257.08475"
     inkscape:window-width="1920"
     inkscape:window-height="1002"
     inkscape:window-x="1920"
     inkscape:window-y="39"
     inkscape:window-maximized="1"
     inkscape:current-layer="g538" />
  <g
     inkscape:groupmode="layer"
     inkscape:label="Image"
     id="g538">
    <path
       style="fill:#020202;stroke:none"
       d="m 182,444 c 0.186,9.03 2.781,17.93 6.756,26 26.662,54.125 106.727,55.536 133.996,1 4.201,-8.403 7.053,-17.553 7.248,-27 h 95 c 11.482,0 27.972,2.932 36.211,-7.185 9.142,-11.227 1.951,-24.47 -2.93,-35.815 -10.289,-23.914 -16.052,-49.318 -19.854,-75 -5.115,-34.558 -1.761,-69.585 -6.854,-104 -4.659,-31.476 -18.176,-62.156 -38.022,-87 C 382.281,120.892 368.865,108.284 354,98.0255 346.622,92.9336 334.452,89.0094 328.603,82.3627 325.886,79.2746 327.169,73.7769 326.91,70 326.423,62.8912 324.826,55.7713 322.656,49 313.375,20.0398 286.503,0 256,0 c -30.507,0 -57.386,20.0745 -66.656,49 -2.17,6.7713 -3.767,13.8912 -4.254,21 -0.263,3.8326 1.012,9.3422 -1.693,12.5046 C 177.736,89.1207 165.273,93.0058 158,98.0255 142.803,108.514 129.05,121.464 117.662,136 c -19.419,24.787 -32.6191,54.819 -37.2345,86 -5.0941,34.415 -1.7397,69.442 -6.855,104 -3.9232,26.505 -10.1357,52.329 -20.723,77 -4.5694,10.648 -10.9039,23.441 -2.1404,33.815 C 59.1942,446.859 75.3561,444 87,444 h 95 M 422,408 H 90 c 10.39,-38.066 19.074,-73.525 22.83,-113 4.118,-43.273 -0.965,-82.911 22.981,-122 12.107,-19.764 28.71,-36.577 48.189,-49.136 9.668,-6.233 24.097,-9.308 31.786,-17.907 7.539,-8.4301 5.094,-21.562 5.218,-31.957 0.169,-14.2356 7.412,-29.2202 20.996,-35.1204 4.441,-1.9291 9.169,-2.8719 14,-2.8719 4.832,0 9.557,0.9439 14,2.8719 13.558,5.884 20.826,20.8648 20.996,35.1204 0.124,10.3953 -2.321,23.5265 5.218,31.957 7.853,8.782 22.853,12.158 32.786,18.479 18.34,11.671 34.479,28.108 45.936,46.564 26.599,42.849 20.672,88.263 25.234,136 3.37,35.269 12.573,67.087 21.83,101 m -128,36 c -6.177,41.826 -69.826,41.809 -76,0 z"
       id="path659" />
  </g>
</svg>
